<?xml version="1.0" standalone="no"?>
<!DOCTYPE svg PUBLIC "-//W3C//DTD SVG 20010904//EN"
 "http://www.w3.org/TR/2001/REC-SVG-20010904/DTD/svg10.dtd">
<svg version="1.0" xmlns="http://www.w3.org/2000/svg"
 width="260.000000pt" height="260.000000pt" viewBox="0 0 260.000000 260.000000"
 preserveAspectRatio="xMidYMid meet">
<metadata>
Created by potrace 1.14, written by Peter Selinger 2001-2017
</metadata>
<g transform="translate(0.000000,260.000000) scale(0.100000,-0.100000)"
fill="#000000" stroke="none">
<path d="M1135 2589 c-22 -4 -53 -9 -70 -12 -98 -16 -221 -56 -327 -106 -207
-97 -440 -309 -552 -504 l-27 -48 -46 26 c-24 15 -47 24 -50 22 -2 -3 -5 -65
-5 -139 1 -84 -5 -157 -14 -198 -46 -196 -53 -420 -20 -570 30 -132 35 -173
35 -260 0 -47 0 -106 0 -132 l1 -47 66 2 c57 2 67 0 77 -18 50 -95 240 -291
359 -373 218 -149 444 -222 708 -227 455 -10 844 193 1113 579 48 69 73 95
110 114 51 28 51 29 48 155 -1 26 8 85 18 130 11 45 24 114 29 152 14 100 7
317 -12 405 -32 145 -35 166 -34 293 0 70 -2 130 -5 133 -2 3 -24 -6 -49 -20
l-44 -24 -62 93 c-195 294 -479 484 -837 560 -86 19 -340 27 -410 14z"/>
</g>
</svg>
