<?xml version="1.0" encoding="UTF-8" standalone="no"?><!DOCTYPE svg PUBLIC "-//W3C//DTD SVG 1.1//EN" "http://www.w3.org/Graphics/SVG/1.1/DTD/svg11.dtd"><svg width="100%" height="100%" viewBox="0 0 1869 1350" version="1.1" xmlns="http://www.w3.org/2000/svg" xmlns:xlink="http://www.w3.org/1999/xlink" xml:space="preserve" xmlns:serif="http://www.serif.com/" style="fill-rule:evenodd;clip-rule:evenodd;stroke-linejoin:round;stroke-miterlimit:2;"><g id="hero-image"><path id="Path_1" d="M1865.86,1339.43l-1863.16,0c-1.481,0 -2.7,-1.219 -2.7,-2.7c-0,-1.481 1.219,-2.7 2.7,-2.7l1863.16,0c1.481,0 2.7,1.219 2.7,2.7c0,1.481 -1.219,2.7 -2.7,2.7Z" style="fill:#ccc;fill-rule:nonzero;"/><path id="Path_2" d="M1681.44,868.497l-1096.29,-0c-9.629,-0 -17.552,7.923 -17.552,17.551c0,9.629 7.923,17.552 17.552,17.552l31.053,-0l0,419.897c0,9.628 7.923,17.551 17.552,17.551c9.628,0 17.551,-7.923 17.551,-17.551l0.266,-419.885l961.012,0l0,419.885c0,9.628 7.923,17.551 17.552,17.551c9.628,0 17.551,-7.923 17.551,-17.551l0,-410.625l5.107,-9.253l28.647,-0c9.628,-0 17.551,-7.923 17.551,-17.552c0,-9.628 -7.923,-17.551 -17.551,-17.551l-0,-0.019Z" style="fill:#ccc;fill-rule:nonzero;"/><path id="Path_3" d="M1192.94,877.691l-332.082,-0c-13.299,-0.016 -24.237,-10.954 -24.253,-24.254l0,-182.828c0.016,-13.299 10.954,-24.237 24.253,-24.253l332.082,0c13.299,0.016 24.237,10.954 24.253,24.253l-0,182.835c-0.016,13.299 -10.954,24.237 -24.253,24.253l-0,-0.006Z" style="fill:#3f3d56;fill-rule:nonzero;"/><path id="Path_4" d="M1192.96,665.025l-332.087,0c-3.065,0.005 -5.586,2.526 -5.591,5.591l0,182.831c0.005,3.065 2.526,5.585 5.591,5.59l332.087,0c3.064,-0.006 5.583,-2.526 5.588,-5.59l-0,-182.835c-0.007,-3.062 -2.525,-5.58 -5.588,-5.587Z" style="fill:#fff;fill-rule:nonzero;"/><path id="Path_5" d="M1055.22,794.466c-0,-0 -39.753,-9.16 -61.619,7.634c-21.865,16.794 27.813,54.962 27.813,54.962l33.806,-62.596Z" style="fill:#2f2e41;fill-rule:nonzero;"/><circle id="Ellipse_17" cx="1028.85" cy="739.659" r="37.497" style="fill:#a0616a;"/><path id="Path_6" d="M999.853,687.022c5.087,-8.646 14.631,-13.728 24.644,-13.125c5.143,0.645 10.163,2.05 14.894,4.169l24.512,9.562c6.344,2.475 13.291,5.506 16.044,11.731c2.556,5.782 0.65,12.457 -1.281,18.472l-9.172,28.603c-1.016,-6.473 -2.759,-12.811 -5.197,-18.893c-2.477,-6.123 -6.956,-11.23 -12.703,-14.485c-6.369,-3.265 -13.872,-3.2 -21.022,-2.856c-10.125,0.488 -21.131,1.775 -28.325,8.916c-3.818,4.054 -6.407,9.11 -7.466,14.578c-1.04,5.439 -1.563,10.965 -1.562,16.503c-4.151,-7.136 -7.648,-14.634 -10.447,-22.4c-2.302,-5.781 -3.614,-11.908 -3.881,-18.125c-0.241,-6.271 1.84,-12.415 5.843,-17.247c4.141,-4.811 10.676,-6.867 16.825,-5.294l-1.706,-0.109Z" style="fill:#2f2e41;fill-rule:nonzero;"/><path id="Path_7" d="M1118.39,826.981c-0.718,-2.584 -2.926,-4.495 -5.587,-4.834c-0.087,-0.06 -0.178,-0.115 -0.272,-0.163l-55.978,-31.372c-3.301,-1.85 -7.531,-0.761 -9.528,2.454l-15.313,24.787l-23.425,-23.425c-2.433,-2.434 -6.3,-2.771 -9.118,-0.797l-46.007,32.216c-0.081,-0 -0.162,0.028 -0.243,0.028c-4.519,0.754 -7.938,4.578 -8.182,9.153l-1.187,24.006l183.725,0l-8.885,-32.053Z" style="fill:#3c896c;fill-rule:nonzero;"/><path id="Path_8" d="M1220.93,855.306l-35.447,0c0,-2.047 -1.684,-3.731 -3.731,-3.731l-11.194,0c-2.047,0 -3.731,1.684 -3.731,3.731l-11.194,0c0,-2.047 -1.684,-3.731 -3.731,-3.731l-11.194,0c-2.047,0 -3.731,1.684 -3.731,3.731l-11.194,0c0,-2.047 -1.684,-3.731 -3.731,-3.731l-11.194,0c-2.047,0 -3.731,1.684 -3.731,3.731l-11.194,0c0,-2.047 -1.684,-3.731 -3.731,-3.731l-11.194,0c-2.047,0 -3.731,1.684 -3.731,3.731l-11.191,0c0,-2.047 -1.684,-3.731 -3.731,-3.731l-11.194,0c-2.047,0 -3.731,1.684 -3.731,3.731l-11.194,0c0,-2.047 -1.684,-3.731 -3.731,-3.731l-11.194,0c-2.047,0 -3.731,1.684 -3.731,3.731l-11.194,0c0,-2.047 -1.684,-3.731 -3.731,-3.731l-11.194,0c-2.047,0 -3.731,1.684 -3.731,3.731l-11.194,0c0,-2.047 -1.684,-3.731 -3.731,-3.731l-11.194,0c-2.047,0 -3.731,1.684 -3.731,3.731l-11.2,0c0,-2.047 -1.684,-3.731 -3.731,-3.731l-11.194,0c-2.047,0 -3.731,1.684 -3.731,3.731l-11.188,0c0,-2.047 -1.684,-3.731 -3.731,-3.731l-11.194,0c-2.047,0 -3.731,1.684 -3.731,3.731l-11.187,0c-0,0 -0,0 -0,0c-0,-2.047 -1.685,-3.731 -3.732,-3.731c-0.006,-0 -0.012,-0 -0.018,0l-11.194,0c-2.047,0 -3.731,1.684 -3.731,3.731l-35.435,0c-6.14,0 -11.193,5.053 -11.193,11.194c-0,6.141 5.053,11.194 11.193,11.194l388.047,-0c6.141,-0 11.194,-5.053 11.194,-11.194c-0,-6.141 -5.053,-11.194 -11.194,-11.194Z" style="fill:#3f3d56;fill-rule:nonzero;"/><path id="Path_9" d="M775.178,790.3l0,74.325l-186.212,0c-0.455,0.017 -0.909,0.025 -1.364,0.025c-20.4,0 -37.187,-16.787 -37.187,-37.187c-0,-20.401 16.787,-37.188 37.187,-37.188c0.455,0 0.909,0.008 1.364,0.025l186.212,-0Z" style="fill:#f2f2f2;fill-rule:nonzero;"/><path id="Path_10" d="M779.75,864.056c-0,1.569 -1.291,2.86 -2.859,2.86l-191.25,-0c-21.485,-0 -39.164,-17.68 -39.164,-39.164c-0,-21.485 17.679,-39.165 39.164,-39.165l191.25,0c1.568,0 2.859,1.291 2.859,2.86c-0,1.568 -1.291,2.859 -2.859,2.859l-191.25,0c-18.349,0 -33.447,15.099 -33.447,33.447c-0,18.349 15.098,33.447 33.447,33.447l191.25,-0c1.567,-0 2.857,1.289 2.859,2.856Z" style="fill:#51876e;fill-rule:nonzero;"/><path id="Path_11" d="M775.178,807.45l-200.106,0c-0.314,0 -0.572,-0.258 -0.572,-0.572c-0,-0.314 0.258,-0.572 0.572,-0.572l200.106,0c0.314,0 0.572,0.258 0.572,0.572c-0,0.314 -0.258,0.572 -0.572,0.572Z" style="fill:#ccc;fill-rule:nonzero;"/><path id="Path_12" d="M775.178,821.175l-200.106,-0c-0.314,-0 -0.572,-0.258 -0.572,-0.572c-0,-0.314 0.258,-0.572 0.572,-0.572l200.106,0c0.314,0 0.572,0.258 0.572,0.572c-0,0.314 -0.258,0.572 -0.572,0.572Z" style="fill:#ccc;fill-rule:nonzero;"/><path id="Path_13" d="M775.178,834.903l-200.106,0c-0.314,0 -0.572,-0.258 -0.572,-0.572c-0,-0.313 0.258,-0.572 0.572,-0.572l200.106,0c0.314,0 0.572,0.259 0.572,0.572c-0,0.314 -0.258,0.572 -0.572,0.572Z" style="fill:#ccc;fill-rule:nonzero;"/><path id="Path_14" d="M775.178,848.616l-200.106,-0c-0.314,-0 -0.572,-0.259 -0.572,-0.572c-0,-0.314 0.258,-0.572 0.572,-0.572l200.106,-0c0.314,-0 0.572,0.258 0.572,0.572c-0,0.313 -0.258,0.572 -0.572,0.572Z" style="fill:#ccc;fill-rule:nonzero;"/><path id="Path_15" d="M740.075,711.994l-0,74.325l-186.213,-0c-0.454,0.016 -0.908,0.025 -1.363,0.025c-20.4,-0 -37.187,-16.787 -37.187,-37.188c-0,-20.4 16.787,-37.187 37.187,-37.187c0.455,-0 0.909,0.008 1.363,0.025l186.213,-0Z" style="fill:#f2f2f2;fill-rule:nonzero;"/><path id="Path_16" d="M744.647,785.75c-0,1.569 -1.291,2.859 -2.86,2.859l-191.25,0c-21.484,0 -39.164,-17.679 -39.164,-39.164c0,-21.484 17.68,-39.164 39.164,-39.164l191.25,0c1.569,0 2.86,1.291 2.86,2.86c-0,1.568 -1.291,2.859 -2.86,2.859l-191.25,-0c-18.348,0 -33.446,15.098 -33.446,33.447c-0,18.348 15.098,33.447 33.446,33.447l191.25,-0c1.568,-0 2.858,1.289 2.86,2.856Z" style="fill:#3f3d56;fill-rule:nonzero;"/><path id="Path_17" d="M740.075,729.144l-200.106,-0c-0.314,-0 -0.572,-0.258 -0.572,-0.572c-0,-0.314 0.258,-0.572 0.572,-0.572l200.106,0c0.314,0 0.572,0.258 0.572,0.572c-0,0.314 -0.258,0.572 -0.572,0.572Z" style="fill:#ccc;fill-rule:nonzero;"/><path id="Path_18" d="M740.075,742.869l-200.106,-0c-0.314,-0 -0.572,-0.258 -0.572,-0.572c-0,-0.314 0.258,-0.572 0.572,-0.572l200.106,0c0.314,0 0.572,0.258 0.572,0.572c-0,0.314 -0.258,0.572 -0.572,0.572Z" style="fill:#ccc;fill-rule:nonzero;"/><path id="Path_19" d="M740.075,756.597l-200.106,-0c-0.314,-0 -0.572,-0.258 -0.572,-0.572c-0,-0.314 0.258,-0.572 0.572,-0.572l200.106,0c0.314,0 0.572,0.258 0.572,0.572c-0,0.314 -0.258,0.572 -0.572,0.572Z" style="fill:#ccc;fill-rule:nonzero;"/><path id="Path_20" d="M740.075,770.309l-200.106,0c-0.314,0 -0.572,-0.258 -0.572,-0.572c-0,-0.313 0.258,-0.571 0.572,-0.571l200.106,-0c0.314,-0 0.572,0.258 0.572,0.572c-0,0.313 -0.258,0.571 -0.572,0.571Z" style="fill:#ccc;fill-rule:nonzero;"/><path id="Path_21" d="M956.697,1128.82l-0,-64.81c-0,-5.924 -4.875,-10.8 -10.8,-10.8l-245.722,0c-5.925,0 -10.8,4.876 -10.8,10.8l-0,64.81l267.322,-0Z" style="fill:#ccc;fill-rule:nonzero;"/><rect id="Rectangle_2" x="689.375" y="1153.12" width="267.322" height="83.706" style="fill:#ccc;"/><path id="Path_22" d="M689.366,1261.11l-0,64.807c-0,5.924 4.875,10.8 10.8,10.8l245.731,-0c5.925,-0 10.8,-4.876 10.8,-10.8l-0,-64.807l-267.331,0Z" style="fill:#ccc;fill-rule:nonzero;"/><circle id="Ellipse_18" cx="821.687" cy="1093.71" r="8.1" style="fill:#fff;"/><circle id="Ellipse_19" cx="821.687" cy="1201.72" r="8.1" style="fill:#fff;"/><circle id="Ellipse_20" cx="822.122" cy="1307.44" r="8.1" style="fill:#fff;"/><path id="Path_23" d="M926.391,979.316l-0,74.325l-186.213,-0c-0.454,0.016 -0.909,0.025 -1.363,0.025c-20.401,-0 -37.188,-16.787 -37.188,-37.188c0,-20.4 16.787,-37.187 37.188,-37.187c0.454,-0 0.909,0.008 1.363,0.025l186.213,-0Z" style="fill:#f2f2f2;fill-rule:nonzero;"/><path id="Path_24" d="M930.962,1053.07c0,1.568 -1.29,2.859 -2.859,2.859l-191.25,0c-21.485,0 -39.164,-17.679 -39.164,-39.164c0,-21.485 17.679,-39.164 39.164,-39.164l191.25,0c1.569,0 2.859,1.291 2.859,2.859c0,1.569 -1.29,2.86 -2.859,2.86l-191.25,-0c-18.348,-0 -33.447,15.098 -33.447,33.447c0,18.348 15.099,33.447 33.447,33.447l191.25,-0c1.568,-0 2.858,1.288 2.859,2.856Z" style="fill:#3f3d56;fill-rule:nonzero;"/><path id="Path_25" d="M926.391,996.469l-200.107,-0c-0.313,-0 -0.572,-0.258 -0.572,-0.572c0,-0.314 0.259,-0.572 0.572,-0.572l200.107,0c0.313,0 0.571,0.258 0.571,0.572c0,0.314 -0.258,0.572 -0.571,0.572Z" style="fill:#ccc;fill-rule:nonzero;"/><path id="Path_26" d="M926.391,1010.19l-200.107,-0c-0.313,-0 -0.572,-0.259 -0.572,-0.572c0,-0.314 0.259,-0.572 0.572,-0.572l200.107,-0c0.313,-0 0.571,0.258 0.571,0.572c0,0.313 -0.258,0.572 -0.571,0.572Z" style="fill:#ccc;fill-rule:nonzero;"/><path id="Path_27" d="M926.391,1023.92l-200.107,-0c-0.313,-0 -0.572,-0.258 -0.572,-0.572c0,-0.314 0.259,-0.572 0.572,-0.572l200.107,0c0.313,0 0.571,0.258 0.571,0.572c0,0.314 -0.258,0.572 -0.571,0.572Z" style="fill:#ccc;fill-rule:nonzero;"/><path id="Path_28" d="M926.391,1037.63l-200.107,0c-0.313,0 -0.572,-0.258 -0.572,-0.572c0,-0.313 0.259,-0.572 0.572,-0.572l200.107,0c0.313,0 0.571,0.259 0.571,0.572c0,0.314 -0.258,0.572 -0.571,0.572Z" style="fill:#ccc;fill-rule:nonzero;"/><path id="Path_29" d="M675.353,494.2l0,-473.888c0.01,-11.139 9.173,-20.302 20.313,-20.312l374.596,0c11.14,0.01 20.303,9.173 20.313,20.313l-0,473.887c-0.012,11.139 -9.174,20.301 -20.313,20.313l-374.6,-0c-11.138,-0.012 -20.299,-9.175 -20.309,-20.313Zm20.313,-489.688c-8.662,0.011 -15.787,7.135 -15.797,15.797l-0,473.891c0.008,8.663 7.134,15.788 15.797,15.797l374.596,-0c8.663,-0.01 15.787,-7.135 15.797,-15.797l0,-473.888c-0.008,-8.662 -7.134,-15.788 -15.797,-15.796l-374.596,-0.004Z" style="fill:#e6e6e6;fill-rule:nonzero;"/><path id="Path_30" d="M903.972,217.634l-0,-97.306c0.005,-5.569 4.587,-10.151 10.156,-10.156l82.456,-0c5.57,0.005 10.151,4.587 10.157,10.156l-0,97.306c-0.006,5.57 -4.587,10.151 -10.157,10.157l-82.459,-0c-5.568,-0.007 -10.148,-4.588 -10.153,-10.157Z" style="fill:#3c896c;fill-rule:nonzero;"/><path id="Path_31" d="M743.75,262.766l-0,-97.303c0.005,-5.569 4.585,-10.15 10.153,-10.157l82.456,0c5.57,0.005 10.151,4.587 10.157,10.157l-0,97.303c-0.006,5.569 -4.587,10.151 -10.157,10.156l-82.456,-0c-5.568,-0.007 -10.148,-4.588 -10.153,-10.156Z" style="fill:#8ef8d6;fill-rule:nonzero;"/><path id="Path_32" d="M872.378,400.422l0,-97.306c0.007,-5.569 4.588,-10.148 10.156,-10.154l82.457,0c5.569,0.006 10.151,4.587 10.156,10.157l-0,97.303c-0.005,5.569 -4.587,10.151 -10.156,10.156l-82.46,0c-5.569,-0.005 -10.151,-4.587 -10.156,-10.156l0.003,-0Z" style="fill:#57be9f;fill-rule:nonzero;"/><path id="Path_33" d="M1365.13,845.278l-84.84,0c-0.805,-0 -1.6,0.185 -2.322,0.541l-21.413,10.718c-1.44,0.611 -2.38,2.03 -2.38,3.594c0,1.564 0.94,2.984 2.38,3.594l21.413,10.719c0.722,0.356 1.517,0.541 2.322,0.54l84.84,0c2.413,0.134 4.517,-1.72 4.688,-4.131l-0,-21.441c-0.17,-2.411 -2.274,-4.267 -4.688,-4.134Z" style="fill:#3f3d56;fill-rule:nonzero;"/><path id="Path_34" d="M1369.83,849.422l0,21.441c-0.171,2.41 -2.274,4.264 -4.687,4.131l-16.925,-0l-0,-29.688l16.903,0c2.415,-0.146 4.53,1.703 4.709,4.116Z" style="fill:#3c896c;fill-rule:nonzero;"/><path id="Path_35" d="M1364.5,684.897c3.717,-1.604 7.722,-2.431 11.771,-2.431c13.056,-0 24.653,8.606 28.435,21.103c0.378,1.27 0.668,2.565 0.866,3.875l118.643,58.834l27.457,-18.197l34.162,39.328l-41.922,34.063c-10.323,8.318 -24.982,8.883 -35.915,1.384l-120.375,-83.244c-0.896,0.381 -1.811,0.714 -2.741,1c-2.788,0.843 -5.685,1.272 -8.598,1.272c-14.302,-0 -26.674,-10.326 -29.233,-24.396c-0.222,-1.195 -0.368,-2.403 -0.438,-3.616c-0.684,-12.421 6.477,-24.021 17.888,-28.975Z" style="fill:#ffb8b8;fill-rule:nonzero;"/><path id="Path_36" d="M1611.61,1047.13l-129.637,0c-0,3.725 -133.607,6.75 -133.607,6.75c-2.097,1.579 -4.008,3.391 -5.696,5.4c-5.074,6.052 -7.849,13.706 -7.832,21.603l0,5.4c0,18.515 15.236,33.75 33.75,33.75l243.022,0c18.508,-0.017 33.733,-15.242 33.75,-33.75l0,-5.4c-0.027,-18.504 -15.245,-33.722 -33.75,-33.75l0,-0.003Z" style="fill:#3f3d56;fill-rule:nonzero;"/><rect id="Rectangle_3" x="1470.59" y="1118.69" width="35.103" height="226.819" style="fill:#3f3d56;"/><path id="Path_37" d="M1370.68,1344.29c0,3.794 53.194,1.465 118.81,1.465c65.615,0 118.809,2.325 118.809,-1.465c-0,-3.791 -53.194,-33.869 -118.809,-33.869c-65.616,0 -118.81,30.059 -118.81,33.869Z" style="fill:#3f3d56;fill-rule:nonzero;"/><path id="Path_38" d="M1402.37,1317.69l-33.106,-0l-15.75,-85.86l48.875,0l-0.019,85.86Z" style="fill:#ffb8b8;fill-rule:nonzero;"/><path id="Path_39" d="M1410.82,1349.78l-106.744,0l-0,-1.35c0.008,-22.794 18.768,-41.547 41.562,-41.547l65.197,0l-0.015,42.897Z" style="fill:#2f2e41;fill-rule:nonzero;"/><path id="Path_40" d="M1352.86,1264.45l-65.997,-148.009c-11.363,-25.728 -0.926,-56.243 23.813,-69.622l143.147,-76.763l65.312,-5.556l60.256,-5.478l0.435,0.734c0.556,0.938 13.512,23.316 4.753,47.854c-6.644,18.612 -23.922,33.149 -51.356,43.209c-64.035,23.478 -138.007,43.547 -166.838,51.084c-2.576,0.659 -4.752,2.39 -5.972,4.753c-1.222,2.334 -1.415,5.075 -0.531,7.557l61.313,137.75c0.491,1.339 0.742,2.755 0.742,4.183c0,6.243 -4.813,11.522 -11.03,12.098l-45.812,3.334c-0.39,0.038 -0.777,0.057 -1.163,0.057c-4.781,-0 -9.136,-2.823 -11.087,-7.188l0.015,0.003Z" style="fill:#2f2e41;fill-rule:nonzero;"/><path id="Path_41" d="M1418.57,1317.69l-33.106,-0l-15.75,-85.86l48.875,0l-0.019,85.86Z" style="fill:#ffb8b8;fill-rule:nonzero;"/><path id="Path_42" d="M1427.02,1349.78l-106.744,0l-0,-1.35c0.008,-22.794 18.768,-41.547 41.562,-41.547l65.197,0l-0.015,42.897Z" style="fill:#2f2e41;fill-rule:nonzero;"/><path id="Path_43" d="M1371.76,1272.55l-65.997,-148.009c-11.363,-25.728 -0.926,-56.243 23.813,-69.622l143.147,-76.763l65.312,-5.556l60.253,-5.478l0.435,0.734c0.556,0.938 13.512,23.316 4.753,47.853c-6.644,18.613 -23.922,33.15 -51.356,43.21c-64.035,23.478 -138.007,43.547 -166.838,51.084c-2.576,0.659 -4.752,2.39 -5.972,4.753c-1.222,2.334 -1.415,5.075 -0.531,7.557l61.313,137.75c0.491,1.339 0.742,2.755 0.742,4.183c0,6.243 -4.813,11.522 -11.03,12.098l-45.812,3.334c-0.39,0.038 -0.777,0.057 -1.163,0.057c-4.781,-0 -9.136,-2.823 -11.087,-7.188l0.018,0.003Z" style="fill:#2f2e41;fill-rule:nonzero;"/><path id="Path_44" d="M1338.87,820.45c-27.729,-36.889 -49.65,-77.805 -65,-121.325c-1.828,-5.354 0.506,-11.303 5.487,-13.984l94.9,-50.85c3.109,-1.679 6.825,-1.83 10.059,-0.41c3.296,1.432 5.751,4.309 6.647,7.788c11.044,41.94 31.809,80.697 60.61,113.125c2.404,2.671 3.443,6.309 2.812,9.847c-0.609,3.48 -2.793,6.491 -5.912,8.15l-94.9,50.85c-4.993,2.664 -11.243,1.311 -14.688,-3.178l-0.015,-0.013Z" style="fill:#ccc;fill-rule:nonzero;"/><path id="Path_45" d="M1345.34,815.584c1.049,1.307 2.894,1.688 4.375,0.903l94.9,-50.85c0.933,-0.486 1.587,-1.383 1.762,-2.421c0.201,-1.097 -0.125,-2.226 -0.878,-3.047c-29.641,-33.381 -51.012,-73.276 -62.378,-116.447c-0.267,-1.08 -1.025,-1.975 -2.047,-2.416c-0.963,-0.43 -2.073,-0.383 -2.997,0.125l-94.9,50.85c-1.477,0.798 -2.185,2.55 -1.675,4.15c15.079,42.742 36.611,82.926 63.847,119.153l-0.009,0Z" style="fill:#fff;fill-rule:nonzero;"/><path id="Path_46" d="M1654.14,806.887l-74.321,28.244l-18.147,-50.403c-4.955,-13.761 0.781,-29.242 13.506,-36.453c12.879,-7.299 29.324,-4.088 38.512,7.519l40.45,51.093Z" style="fill:#4ed5ff;fill-rule:nonzero;"/><path id="Path_47" d="M1465.1,1006.6c-3.162,-2.237 -5.213,-5.73 -5.625,-9.581c-9.519,-88.863 -2.888,-158.407 20.269,-212.604c8.257,-18.925 24.761,-33.05 44.734,-38.287l60.078,-3.031l0.313,0.15c27.758,13.596 43.426,43.997 38.393,74.494c-19.322,50.937 -35.503,103.965 -23.162,146.746c1.045,3.613 0.573,7.499 -1.306,10.757c-1.82,3.154 -4.867,5.418 -8.413,6.25l-114.431,27.222c-3.751,0.888 -7.708,0.116 -10.85,-2.116Z" style="fill:#8ef8d6;fill-rule:nonzero;"/><circle id="Ellipse_21" cx="1564.5" cy="654.331" r="66.322" style="fill:#ffb8b8;"/><path id="Path_48" d="M1380.46,706.856l-51.687,22.813c-4.066,1.779 -8.877,-0.085 -10.681,-4.141l-1.279,-2.897c-1.779,-4.066 0.086,-8.877 4.141,-10.681l51.688,-22.812c4.066,-1.78 8.877,0.085 10.681,4.14l1.278,2.897c1.78,4.066 -0.085,8.877 -4.141,10.681Z" style="fill:#ccc;fill-rule:nonzero;"/><path id="Path_49" d="M1399.36,741.959l-51.687,22.813c-4.066,1.78 -8.877,-0.085 -10.681,-4.141l-1.279,-2.897c-1.779,-4.066 0.086,-8.877 4.141,-10.681l51.688,-22.812c4.066,-1.78 8.877,0.085 10.681,4.14l1.278,2.897c1.78,4.066 -0.085,8.877 -4.141,10.681Z" style="fill:#ccc;fill-rule:nonzero;"/><path id="Path_50" d="M1439.23,879.072l-115.231,-90.906c-0.923,0.323 -1.861,0.598 -2.812,0.825c-8.221,1.923 -16.884,0.262 -23.81,-4.566c-6.977,-4.832 -11.537,-12.449 -12.5,-20.881c-0.133,-1.143 -0.2,-2.292 -0.2,-3.442c0,-16.296 13.41,-29.706 29.706,-29.706c13.732,0 25.76,9.521 28.913,22.885c0.299,1.291 0.508,2.602 0.625,3.922l114.709,66.175l28.547,-16.434l31.638,41.409l-44.319,31.563c-10.624,7.509 -25.016,7.158 -35.263,-0.86l-0.003,0.016Z" style="fill:#ffb8b8;fill-rule:nonzero;"/><path id="Path_51" d="M1532.88,861.234l-65.747,-44.709l30.897,-43.75c8.436,-11.947 24.407,-16.121 37.609,-9.828c13.363,6.369 20.159,21.683 15.916,35.865l-18.675,62.422Z" style="fill:#a7f5d8;fill-rule:nonzero;"/><path id="Path_52" d="M1540.19,644.453c-17.046,11.666 -39.428,23.66 -56.837,11.25c-11.152,-8.493 -15.403,-23.425 -10.397,-36.519c8.338,-23.84 31.25,-34.334 53.141,-42.378c28.472,-10.459 59.475,-18.778 88.868,-11.287c29.394,7.49 55.369,35.937 50.063,65.812c-4.266,24.016 -26.922,44 -23.706,68.178c3.237,24.335 30.603,37.144 54.765,41.494c24.163,4.35 51.197,5.747 68.56,23.1c22.15,22.138 16.618,61.71 -4.225,85.085c-20.844,23.375 -52.294,33.968 -82.772,41.171c-40.381,9.544 -84.063,14.56 -122.406,-1.278c-38.344,-15.837 -68.197,-58.472 -57.088,-98.437c4.688,-16.875 15.747,-31.16 26.431,-45.053c10.685,-13.894 21.503,-28.438 25.578,-45.469c3.397,-14.206 0.882,-30.697 -8.537,-41.353c-3.504,-3.817 -4.154,-9.494 -1.603,-14.003l0.165,-0.313Z" style="fill:#2f2e41;fill-rule:nonzero;"/><path id="Path_53" d="M294.522,966.681c-34.717,12.203 -73.4,5.389 -101.856,-17.943c-35.675,-29.944 -46.875,-79.276 -55.963,-124.954l-26.919,-135.122l56.36,38.807c40.528,27.906 81.972,56.709 110.034,97.131c28.063,40.422 40.313,95.603 17.766,139.341" style="fill:#57be9f;fill-rule:nonzero;"/><path id="Path_54" d="M289.7,1130.26c5.703,-41.562 11.562,-83.631 7.569,-125.625c-3.553,-37.297 -14.932,-73.725 -38.097,-103.59c-12.296,-15.824 -27.258,-29.383 -44.213,-40.066c-4.422,-2.791 -8.49,4.216 -4.087,6.994c29.333,18.538 52.031,45.924 64.803,78.187c14.109,35.885 16.375,75 13.944,113.125c-1.469,23.053 -4.588,45.953 -7.725,68.825c-0.51,2.134 0.734,4.326 2.828,4.982c2.141,0.583 4.385,-0.691 4.981,-2.829l-0.003,-0.003Z" style="fill:#f2f2f2;fill-rule:nonzero;"/><path id="Path_55" d="M234.762,1056.73c-14.891,22.635 -40.592,35.897 -67.668,34.919c-34.247,-1.625 -62.813,-25.528 -88.5,-48.222l-76.019,-67.119l50.312,-2.409c36.182,-1.731 73.297,-3.347 107.76,7.813c34.462,11.159 66.25,38.009 72.547,73.681" style="fill:#57be9f;fill-rule:nonzero;"/><path id="Path_56" d="M305.825,1154.14c-27.444,-48.582 -59.303,-102.572 -116.194,-119.829c-15.822,-4.782 -32.413,-6.495 -48.878,-5.046c-5.191,0.447 -3.894,8.437 1.288,8c27.591,-2.294 55.148,4.992 78,20.625c21.993,14.968 39.115,35.781 53.609,57.853c8.878,13.518 16.831,27.612 24.784,41.684c2.541,4.497 9.972,1.25 7.4,-3.3l-0.009,0.013Z" style="fill:#f2f2f2;fill-rule:nonzero;"/><path id="Path_57" d="M349.812,1205.27c-1.882,-21.817 -15.804,-40.846 -36.028,-49.244l0,-28.084l-47.103,-0l0,28.968c-19.208,8.801 -32.245,27.31 -34.062,48.36l-11.075,128.75l139.353,-0l-11.085,-128.75Z" style="fill:#f2f2f2;fill-rule:nonzero;"/></g></svg>