<?xml version="1.0" encoding="UTF-8" standalone="no"?><!DOCTYPE svg PUBLIC "-//W3C//DTD SVG 1.1//EN" "http://www.w3.org/Graphics/SVG/1.1/DTD/svg11.dtd"><svg width="100%" height="100%" viewBox="0 0 2084 1800" version="1.1" xmlns="http://www.w3.org/2000/svg" xmlns:xlink="http://www.w3.org/1999/xlink" xml:space="preserve" xmlns:serif="http://www.serif.com/" style="fill-rule:evenodd;clip-rule:evenodd;stroke-linejoin:round;stroke-miterlimit:2;"><rect id="Artboard" x="0" y="0" width="2083.7" height="1799.58" style="fill:none;"/><clipPath id="_clip1"><rect id="Artboard1" serif:id="Artboard" x="0" y="0" width="2083.7" height="1799.58"/></clipPath><g clip-path="url(#_clip1)"><g id="Person"><path d="M1473.87,1654.7c34.424,23.069 73.644,139.687 73.644,139.687c0,0 -122.774,8.005 -157.187,-15.053c-20.775,-13.913 -33.275,-37.33 -33.275,-62.334c-0,-41.155 33.866,-75.022 75.021,-75.022c14.884,0 29.437,4.43 41.797,12.722l0,0Z" style="fill:#57be9f;fill-rule:nonzero;"/><path d="M1548.91,1793.51l-1.923,1.534c-70.159,-88.015 -176.031,-118.415 -177.092,-118.712l0.662,-2.369c1.068,0.298 107.684,30.893 178.353,119.547Z" style="fill:#fff;fill-rule:nonzero;"/><path d="M1657.97,1608.18c-2.195,57.309 -111.14,188.182 -111.14,188.182c-0,-0 -98.558,-138.861 -96.37,-196.15c2.127,-55.417 48.297,-99.847 103.755,-99.847c56.96,-0 103.831,46.871 103.831,103.831c0,1.328 -0.025,2.657 -0.076,3.984l-0,-0Z" style="fill:#57be9f;fill-rule:nonzero;"/><path d="M1548.88,1797.37l-3.204,-1.153c52.782,-146.566 11.749,-293.389 11.328,-294.855l3.272,-0.939c0.424,1.476 41.769,149.317 -11.396,296.947Z" style="fill:#fff;fill-rule:nonzero;"/><path d="M1920.82,1193.99c-4.125,-4.488 -6.416,-10.367 -6.416,-16.464c-0,-8.31 4.257,-16.066 11.268,-20.527l-19.94,-84.133l42.203,15.418l12.465,77.531c1.969,3.599 3.001,7.636 3.001,11.739c0,13.42 -11.043,24.463 -24.463,24.463c-6.897,-0 -13.483,-2.918 -18.118,-8.026l0,-0.001Z" style="fill:#ffb8b8;fill-rule:nonzero;"/><path d="M1819.34,841.43l16.937,43.552c0,0 -7.258,43.553 4.84,53.231c12.098,9.679 7.258,9.679 7.258,16.938c0.843,10.524 6.125,20.209 14.518,26.615c9.678,7.259 53.231,154.854 53.231,154.854l43.553,0c-1.407,-11.247 -1.407,-22.626 -0,-33.874c2.419,-16.937 -7.259,-60.49 -12.098,-67.749c-4.839,-7.258 -0,-16.937 -0,-31.454c-0,-14.518 -9.679,-21.777 -9.679,-45.973c0,-24.196 -29.035,-212.924 -26.615,-234.7c2.419,-21.777 -24.196,-41.134 -24.196,-41.134l-24.196,0l-43.553,159.694Z" style="fill:#8ef8d6;fill-rule:nonzero;"/><path d="M1930.72,1761.63l-32.187,-0l-15.312,-124.156l47.505,0.002l-0.006,124.154Z" style="fill:#ffb8b8;fill-rule:nonzero;"/><path d="M1938.93,1792.83l-103.788,-0.003l-0,-1.313c0.001,-22.161 18.236,-40.396 40.397,-40.397l0.003,0l18.958,-14.383l35.372,14.385l9.06,0.001l-0.002,41.71Z" style="fill:#2f2e41;fill-rule:nonzero;"/><path d="M1636.26,1760.71l-30.227,-11.06l28.27,-121.858l44.616,16.323l-42.659,116.595Z" style="fill:#ffb8b8;fill-rule:nonzero;"/><path d="M1633.25,1792.83l-97.471,-35.659l0.451,-1.233c7.615,-20.811 31.005,-31.672 51.817,-24.06l0.002,0.001l22.746,-6.994l28.277,25.661l8.509,3.113l-14.331,39.171Z" style="fill:#2f2e41;fill-rule:nonzero;"/><path d="M1859.8,1181.07c-0,-0 -21.777,106.462 14.517,96.784c36.294,-9.679 21.777,-101.623 21.777,-101.623l-36.294,4.839Z" style="fill:#a0616a;fill-rule:nonzero;"/><path d="M1700.11,1092.75c0,-0 -29.035,38.713 -29.035,60.49c0,21.776 -9.678,215.344 -9.678,215.344c-0,-0 -73.464,288.245 -58.947,302.763c14.518,14.517 65.329,29.035 72.588,21.776c7.259,-7.259 71.045,-305.183 71.045,-305.183l60.49,-162.113l55.65,232.282l4.839,246.798c0,0 60.49,14.518 72.588,4.839c12.098,-9.678 14.518,-244.379 0,-326.645c-14.517,-82.266 2.42,-270.995 2.42,-270.995l-241.96,-19.356Z" style="fill:#2f2e41;fill-rule:nonzero;"/><circle cx="1797.14" cy="503.582" r="72.588" style="fill:#ffb8b8;"/><path d="M1704.95,681.423c-0,-0 20.9,-31.141 62.033,-72.274c21.776,-7.259 59.507,-3.029 72.587,-0c60.49,79.846 64.297,74.54 80.043,119.153c4.083,11.569 6.125,22.684 4.31,31.757c-7.259,36.294 15.727,330.275 18.147,339.953c2.419,9.679 19.356,21.777 2.419,21.777c-16.937,-0 -273.414,-9.679 -268.575,-16.937c4.839,-7.259 29.036,-423.429 29.036,-423.429Z" style="fill:#8ef8d6;fill-rule:nonzero;"/><path d="M1693.87,1101.66l72.781,-160.131l-36.391,170.303l-36.39,-10.172Z" style="fill-opacity:0.1;fill-rule:nonzero;"/><path d="M1775.18,570.83c6.796,-5.057 13.054,-10.801 18.675,-17.139c5.641,-6.394 9.175,-14.376 10.116,-22.851c0.837,-8.581 -2.791,-17.016 -9.597,-22.31c-6.913,-4.884 -17.456,-4.6 -23.195,1.623c2.773,-8.962 5.305,-19.533 -0.31,-27.047c-5.111,-6.84 -14.644,-8.002 -22.879,-10.257c-15.876,-4.42 -29.548,-14.605 -38.327,-28.552l13.984,2.894l-1.559,-9.97l11.589,4.03l0.101,-13.885l11.96,6.692c14.637,-13.419 33.946,-20.613 53.795,-20.043c10.015,0.166 19.827,2.86 28.523,7.83c8.713,5.04 15.317,13.064 18.586,22.584c6.156,-6.39 17.131,-5.896 24.465,-0.902c7.334,4.994 11.642,13.349 14.6,21.714c5.858,16.041 7.221,33.381 3.943,50.141c-3.374,16.796 -12.43,31.929 -25.637,42.842c-12.131,9.258 -26.577,15.005 -41.753,16.609c-15.115,1.567 -30.378,0.914 -45.304,-1.937" style="fill:#2f2e41;fill-rule:nonzero;"/><path d="M1671.21,1193.68c4.126,-4.489 6.417,-10.368 6.417,-16.465c-0,-8.31 -4.258,-16.066 -11.269,-20.527l19.94,-84.133l-42.203,15.418l-12.465,77.531c-1.969,3.599 -3.001,7.637 -3.001,11.739c0,13.42 11.043,24.463 24.463,24.463c6.898,-0 13.484,-2.918 18.118,-8.026l0,-0Z" style="fill:#ffb8b8;fill-rule:nonzero;"/><path d="M1729.14,681.423l-24.195,-0c-0,-0 -26.616,19.356 -24.196,41.133c2.419,21.776 -26.616,210.504 -26.616,234.7c0,24.196 -9.678,31.455 -9.678,45.973c-0,14.517 4.839,24.196 -0,31.454c-4.84,7.259 -14.518,50.812 -12.098,67.749c1.407,11.248 1.407,22.627 -0,33.874l43.552,0c0,0 43.553,-147.595 53.231,-154.854c8.393,-6.406 13.676,-16.09 14.518,-26.615c0,-7.259 -4.839,-7.259 7.259,-16.937c12.098,-9.679 4.839,-53.231 4.839,-53.231l16.937,-43.553l-43.553,-159.693Z" style="fill:#8ef8d6;fill-rule:nonzero;"/><path d="M2071.59,1799.58l-986.124,0c-0.002,0 -0.004,0 -0.007,0c-1.378,0 -2.513,-1.526 -2.513,-3.382c0,-1.855 1.135,-3.382 2.513,-3.382c0.003,0 0.005,0 0.007,0l986.124,0c0.002,0 0.004,0 0.007,0c1.378,0 2.512,1.527 2.512,3.382c0,1.856 -1.134,3.382 -2.512,3.382c-0.003,0 -0.005,0 -0.007,0Z" style="fill:#ccc;fill-rule:nonzero;"/></g><g id="Resume"><path d="M1243.26,1344.58l-933.719,-0c-34.406,-0.039 -62.705,-28.339 -62.744,-62.744l0,-1067.06c0.039,-34.405 28.338,-62.705 62.744,-62.744l933.719,0c34.405,0.039 62.704,28.339 62.743,62.744l0,1067.06c-0.039,34.406 -28.338,62.705 -62.743,62.744Z" style="fill:#ccc;fill-rule:nonzero;"/><path d="M1199.63,1292.29l-846.458,0c-30.548,-0.034 -55.675,-25.161 -55.709,-55.709l-0,-976.537c0.034,-30.548 25.161,-55.675 55.709,-55.709l846.458,-0c30.548,0.034 55.675,25.161 55.71,55.709l-0,976.537c-0.035,30.548 -25.162,55.675 -55.71,55.709Z" style="fill:#fff;fill-rule:nonzero;"/><path d="M1165.95,343.318l-427.013,0c-0.007,0 -0.013,0 -0.02,0c-7.64,0 -13.926,-6.286 -13.926,-13.926c-0,-7.64 6.286,-13.927 13.926,-13.927c0.007,0 0.013,0 0.02,0l427.013,0c0.007,0 0.014,0 0.02,0c7.64,0 13.927,6.287 13.927,13.927c-0,7.64 -6.287,13.926 -13.927,13.926c-0.006,0 -0.013,0 -0.02,0Z" style="fill:#e6e6e6;fill-rule:nonzero;"/><path d="M1165.95,398.348l-427.013,-0c-7.64,-0 -13.927,-6.287 -13.927,-13.927c-0,-7.64 6.287,-13.927 13.927,-13.927l427.013,-0c7.64,-0 13.927,6.287 13.927,13.927c0,7.64 -6.287,13.927 -13.927,13.927Z" style="fill:#e6e6e6;fill-rule:nonzero;"/><path d="M924.039,453.378l-185.1,-0c-7.64,-0 -13.927,-6.287 -13.927,-13.927c-0,-7.64 6.287,-13.927 13.927,-13.927l185.1,-0c7.64,-0 13.927,6.287 13.927,13.927c-0,7.64 -6.287,13.927 -13.927,13.927Z" style="fill:#e6e6e6;fill-rule:nonzero;"/><path d="M1114.46,675.636l-674.121,-0c-0.007,-0 -0.013,-0 -0.02,-0c-7.64,-0 -13.926,-6.287 -13.926,-13.927c-0,-7.639 6.286,-13.926 13.926,-13.926c0.007,0 0.013,0 0.02,0l674.121,0c0.007,0 0.014,0 0.02,0c7.64,0 13.927,6.287 13.927,13.926c-0,7.64 -6.287,13.927 -13.927,13.927c-0.006,-0 -0.013,-0 -0.02,-0Z" style="fill:#e6e6e6;fill-rule:nonzero;"/><path d="M1114.46,730.666l-674.121,-0c-7.64,-0 -13.927,-6.287 -13.927,-13.927c-0,-7.641 6.287,-13.927 13.927,-13.927l674.121,-0c7.641,-0 13.927,6.286 13.927,13.927c0,7.64 -6.286,13.927 -13.927,13.927Z" style="fill:#e6e6e6;fill-rule:nonzero;"/><path d="M1114.46,855.581l-674.121,-0c-7.64,-0 -13.926,-6.287 -13.926,-13.926c-0,-7.64 6.286,-13.927 13.926,-13.927l674.121,0c7.64,0 13.927,6.287 13.927,13.927c-0,7.639 -6.287,13.926 -13.927,13.926Z" style="fill:#e6e6e6;fill-rule:nonzero;"/><path d="M1114.46,910.611l-674.121,-0c-7.64,-0 -13.927,-6.287 -13.927,-13.927c-0,-7.64 6.287,-13.927 13.927,-13.927l674.121,-0c7.641,-0 13.927,6.287 13.927,13.927c0,7.64 -6.286,13.927 -13.927,13.927Z" style="fill:#e6e6e6;fill-rule:nonzero;"/><path d="M1114.46,1035.53l-674.121,0c-7.64,0 -13.926,-6.286 -13.926,-13.926c-0,-7.64 6.286,-13.926 13.926,-13.926l674.121,-0c7.64,-0 13.927,6.286 13.927,13.926c-0,7.64 -6.287,13.926 -13.927,13.926Z" style="fill:#e6e6e6;fill-rule:nonzero;"/><path d="M1114.46,1090.56l-674.121,0c-7.64,0 -13.927,-6.287 -13.927,-13.927c-0,-7.64 6.287,-13.927 13.927,-13.927l674.121,0c7.641,0 13.927,6.287 13.927,13.927c0,7.64 -6.286,13.927 -13.927,13.927Z" style="fill:#e6e6e6;fill-rule:nonzero;"/><path d="M1114.34,1242.99l-185.1,0c-7.64,0 -13.927,-6.287 -13.927,-13.927c0,-7.64 6.287,-13.927 13.927,-13.927l185.1,0c7.641,0 13.927,6.287 13.927,13.927c0,7.64 -6.286,13.927 -13.927,13.927Z" style="fill:#57be9f;fill-rule:nonzero;"/><path d="M620.734,386.052c0.038,29.902 -10.091,58.947 -28.715,82.341c-6.026,7.616 -12.885,14.532 -20.451,20.621c-20.644,16.746 -45.877,26.867 -72.371,29.028c-3.608,0.312 -7.244,0.454 -10.908,0.454c-7.261,0.002 -14.509,-0.597 -21.672,-1.789c-2.526,-0.398 -4.998,-0.881 -7.469,-1.449c-4.302,-0.957 -8.549,-2.142 -12.725,-3.55c-13.542,-4.507 -26.262,-11.184 -37.663,-19.769c-3.039,-2.272 -5.964,-4.686 -8.804,-7.243c-3.474,-3.081 -6.765,-6.362 -9.857,-9.827c-0.823,-0.909 -1.647,-1.846 -2.442,-2.784c-20.48,-23.969 -31.74,-54.483 -31.74,-86.011c-0,-72.637 59.771,-132.408 132.408,-132.408c72.629,-0 132.397,59.757 132.409,132.386l0,-0Z" style="fill:#e4e4e4;fill-rule:nonzero;"/><circle cx="483.679" cy="376.977" r="54.275" style="fill:#a0616a;"/><path d="M544.102,350.519c0.246,-4.848 -1.123,-9.645 -3.891,-13.633l-1.96,-2.784c-7.073,-13.633 -18.746,-25.903 -27.295,-34.879c-6.42,-6.731 -12.838,-9.969 -19.003,-9.657c-4.484,0.32 -8.663,2.405 -11.617,5.794c-16.556,-1.011 -32.214,7.925 -39.764,22.695c-25.989,13.718 -18.235,54.221 -18.15,54.647l6.278,10.538l0.71,-1.335c0,-0.028 0.085,-0.142 0.199,-0.369c1.222,-2.187 7.867,-14.344 12.355,-22.041c1.638,-2.626 3.817,-4.872 6.391,-6.59c4.203,-2.872 9.035,-4.693 14.088,-5.311l13.804,-1.789l-5.226,7.839l37.605,-0l14.457,-1.704c1.449,5.936 12.924,28.971 14.315,31.754l0.114,0.228l0.766,1.562l4.29,-11.788c2.504,-7.463 3.033,-15.449 1.534,-23.177Z" style="fill:#2f2e41;fill-rule:nonzero;"/><path d="M409.158,492.223c2.329,-3.068 14.401,-17.383 42.179,-24.966l14.713,-16.389l58.993,-9.402l30.022,16.588l36.953,10.339c-6.025,7.616 -12.885,14.532 -20.45,20.62c-20.645,16.747 -45.877,26.868 -72.372,29.029c-3.607,0.312 -7.243,0.454 -10.907,0.454c-7.26,0.002 -14.509,-0.597 -21.671,-1.789c-2.528,-0.398 -4.999,-0.881 -7.47,-1.449c-4.302,-0.957 -8.549,-2.142 -12.725,-3.55c-13.389,-4.449 -25.972,-11.028 -37.265,-19.485c-0.142,-0.085 -0.256,-0.199 -0.398,-0.284l0.398,0.284Z" style="fill:#3c896c;fill-rule:nonzero;"/></g></g></svg>